<?xml version="1.0" standalone="no"?>
<!DOCTYPE svg PUBLIC "-//W3C//DTD SVG 20010904//EN"
 "http://www.w3.org/TR/2001/REC-SVG-20010904/DTD/svg10.dtd">
<svg version="1.0" xmlns="http://www.w3.org/2000/svg"
 width="700.000000pt" height="700.000000pt" viewBox="0 0 700.000000 700.000000"
 preserveAspectRatio="xMidYMid meet">
<metadata>
Created by potrace 1.11, written by Peter Selinger 2001-2013
</metadata>
<g transform="translate(0.000000,700.000000) scale(0.100000,-0.100000)"
fill="#000000" stroke="none">
<path d="M0 3500 l0 -3500 3500 0 3500 0 0 3500 0 3500 -3500 0 -3500 0 0
-3500z m3740 3160 c150 -13 344 -50 397 -75 1 -1 -4 -96 -11 -213 -14 -223
-17 -234 -66 -255 -14 -6 -158 -13 -335 -17 -326 -8 -437 -20 -616 -65 -173
-43 -336 -122 -445 -213 -130 -109 -260 -309 -323 -498 -47 -140 -61 -251 -61
-486 l0 -208 1310 0 1310 0 0 -2115 0 -2115 -385 0 -385 0 0 1840 0 1840 -910
0 -910 0 0 -1840 0 -1840 -380 0 -380 0 0 1835 c0 1009 -3 1835 -7 1835 -5 0
-118 13 -253 29 -259 30 -304 41 -367 95 -45 38 -53 77 -53 269 l0 167 339 0
339 0 5 258 c5 281 14 356 72 567 77 279 196 487 394 686 202 203 425 333 725
424 132 39 343 81 481 94 129 12 381 12 515 1z"/>
</g>
</svg>
