<?xml version="1.0" encoding="utf-8"?>
<!-- Generator: Adobe Illustrator 23.0.4, SVG Export Plug-In . SVG Version: 6.00 Build 0)  -->
<svg version="1.1" id="Layer_1" xmlns="http://www.w3.org/2000/svg" xmlns:xlink="http://www.w3.org/1999/xlink" x="0px" y="0px"
	 viewBox="0 0 274 74" style="enable-background:new 0 0 274 74;" xml:space="preserve">
<style type="text/css">
	.st0{enable-background:new    ;}
	.st1{fill:#FFFFFF;}
</style>
<title>Group</title>
<desc>Created with Sketch.</desc>
<g id="Startseite" transform="translate(-60.000000, -22.000000)">
	<g id="Group" transform="translate(59.000000, 9.000000)">
		<g class="st0">
			<path class="st1" d="M10.1,84.5l0,1.5H1.7V72.4h8.4v1.5H3.6v4.5h5.3v1.4H3.6v4.6H10.1z"/>
			<path class="st1" d="M14.4,73.4c0,0.2,0,0.3-0.1,0.5s-0.2,0.3-0.3,0.4c-0.1,0.1-0.2,0.2-0.4,0.3c-0.1,0.1-0.3,0.1-0.5,0.1
				c-0.2,0-0.3,0-0.5-0.1c-0.1-0.1-0.3-0.1-0.4-0.3c-0.1-0.1-0.2-0.2-0.3-0.4S12,73.5,12,73.4s0-0.3,0.1-0.5
				c0.1-0.1,0.1-0.3,0.3-0.4c0.1-0.1,0.2-0.2,0.4-0.3s0.3-0.1,0.5-0.1c0.2,0,0.3,0,0.5,0.1c0.1,0.1,0.3,0.2,0.4,0.3
				c0.1,0.1,0.2,0.2,0.3,0.4C14.4,73,14.4,73.2,14.4,73.4z M14.1,76.4V86h-1.7v-9.6H14.1z"/>
			<path class="st1" d="M18.4,77.8c0.2-0.2,0.4-0.4,0.7-0.6c0.2-0.2,0.5-0.4,0.7-0.5c0.3-0.1,0.5-0.2,0.8-0.3c0.3-0.1,0.6-0.1,1-0.1
				c0.5,0,1,0.1,1.4,0.3c0.4,0.2,0.7,0.4,1,0.7c0.3,0.3,0.5,0.7,0.6,1.2c0.1,0.5,0.2,0.9,0.2,1.5V86h-1.7v-6.1
				c0-0.7-0.2-1.3-0.5-1.7s-0.8-0.6-1.5-0.6c-0.5,0-1,0.1-1.4,0.4s-0.8,0.6-1.2,1V86h-1.7v-9.6h1c0.2,0,0.4,0.1,0.4,0.4L18.4,77.8z"
				/>
			<path class="st1" d="M35.2,84.7c-0.2,0.3-0.5,0.5-0.8,0.7s-0.6,0.3-0.9,0.5c-0.3,0.1-0.7,0.2-1,0.3c-0.4,0.1-0.7,0.1-1.1,0.1
				c-0.7,0-1.3-0.1-1.8-0.3s-1-0.6-1.5-1c-0.4-0.4-0.7-1-1-1.6s-0.3-1.4-0.3-2.2c0-0.7,0.1-1.3,0.3-1.9c0.2-0.6,0.5-1.1,0.9-1.5
				c0.4-0.4,0.9-0.8,1.4-1c0.6-0.2,1.2-0.4,1.9-0.4c0.6,0,1.1,0.1,1.6,0.3c0.5,0.2,0.9,0.5,1.3,0.8s0.6,0.8,0.8,1.3s0.3,1.1,0.3,1.8
				c0,0.3,0,0.4-0.1,0.5c-0.1,0.1-0.2,0.1-0.3,0.1h-6.4c0,0.6,0.1,1.1,0.3,1.6c0.1,0.5,0.4,0.8,0.6,1.1s0.6,0.5,1,0.7
				c0.4,0.1,0.8,0.2,1.2,0.2c0.4,0,0.8,0,1.1-0.1c0.3-0.1,0.6-0.2,0.8-0.3c0.2-0.1,0.4-0.2,0.6-0.3c0.1-0.1,0.3-0.1,0.4-0.1
				c0.1,0,0.2,0.1,0.3,0.2L35.2,84.7z M33.9,80.1c0-0.4-0.1-0.8-0.2-1.1s-0.3-0.6-0.5-0.8c-0.2-0.2-0.5-0.4-0.8-0.6s-0.6-0.2-1-0.2
				c-0.8,0-1.5,0.2-1.9,0.7c-0.5,0.5-0.8,1.1-0.9,2H33.9z"/>
			<path class="st1" d="M44.6,86h-1.8V72.4h1.8V86z"/>
			<path class="st1" d="M49.1,77.8c0.2-0.2,0.4-0.4,0.7-0.6c0.2-0.2,0.5-0.4,0.7-0.5c0.3-0.1,0.5-0.2,0.8-0.3c0.3-0.1,0.6-0.1,1-0.1
				c0.5,0,1,0.1,1.4,0.3c0.4,0.2,0.7,0.4,1,0.7c0.3,0.3,0.5,0.7,0.6,1.2c0.1,0.5,0.2,0.9,0.2,1.5V86h-1.7v-6.1
				c0-0.7-0.2-1.3-0.5-1.7s-0.8-0.6-1.5-0.6c-0.5,0-1,0.1-1.4,0.4s-0.8,0.6-1.2,1V86h-1.7v-9.6h1c0.2,0,0.4,0.1,0.4,0.4L49.1,77.8z"
				/>
			<path class="st1" d="M60.2,73.4c0,0.2,0,0.3-0.1,0.5s-0.2,0.3-0.3,0.4c-0.1,0.1-0.2,0.2-0.4,0.3c-0.1,0.1-0.3,0.1-0.5,0.1
				c-0.2,0-0.3,0-0.5-0.1c-0.1-0.1-0.3-0.1-0.4-0.3c-0.1-0.1-0.2-0.2-0.3-0.4s-0.1-0.3-0.1-0.5s0-0.3,0.1-0.5
				c0.1-0.1,0.1-0.3,0.3-0.4c0.1-0.1,0.2-0.2,0.4-0.3s0.3-0.1,0.5-0.1c0.2,0,0.3,0,0.5,0.1c0.1,0.1,0.3,0.2,0.4,0.3
				c0.1,0.1,0.2,0.2,0.3,0.4C60.2,73,60.2,73.2,60.2,73.4z M59.9,76.4V86h-1.7v-9.6H59.9z"/>
			<path class="st1" d="M71.6,86h-1.7v-8.2h-5v5.8c0,0.4,0.1,0.7,0.3,0.9s0.4,0.3,0.8,0.3c0.2,0,0.3,0,0.5-0.1
				c0.1,0,0.2-0.1,0.3-0.2c0.1-0.1,0.2-0.1,0.2-0.2c0.1,0,0.1-0.1,0.2-0.1c0.1,0,0.2,0.1,0.2,0.2l0.5,0.8c-0.3,0.3-0.6,0.5-1.1,0.6
				s-0.8,0.2-1.3,0.2c-0.8,0-1.3-0.2-1.8-0.6c-0.4-0.4-0.6-1-0.6-1.8v-5.9h-1.2c-0.1,0-0.2,0-0.3-0.1c-0.1-0.1-0.1-0.2-0.1-0.3v-0.7
				l1.6-0.2l0.4-3c0-0.1,0.1-0.2,0.1-0.2c0.1-0.1,0.2-0.1,0.3-0.1h0.9v3.3h6.6V86z M72,73.3c0,0.2,0,0.3-0.1,0.5s-0.2,0.3-0.3,0.4
				s-0.2,0.2-0.4,0.3c-0.1,0.1-0.3,0.1-0.5,0.1c-0.2,0-0.3,0-0.5-0.1s-0.3-0.1-0.4-0.3c-0.1-0.1-0.2-0.2-0.3-0.4s-0.1-0.3-0.1-0.5
				s0-0.3,0.1-0.5c0.1-0.1,0.1-0.3,0.3-0.4c0.1-0.1,0.2-0.2,0.4-0.3s0.3-0.1,0.5-0.1c0.2,0,0.3,0,0.5,0.1c0.1,0.1,0.3,0.2,0.4,0.3
				c0.1,0.1,0.2,0.2,0.3,0.4C72,73,72,73.1,72,73.3z"/>
			<path class="st1" d="M74.1,77.7c0.5-0.5,1.1-0.9,1.7-1.1c0.6-0.3,1.3-0.4,2-0.4c0.5,0,1,0.1,1.4,0.3c0.4,0.2,0.8,0.4,1.1,0.7
				c0.3,0.3,0.5,0.7,0.6,1.1c0.1,0.4,0.2,0.9,0.2,1.5V86h-0.8c-0.2,0-0.3,0-0.4-0.1c-0.1-0.1-0.2-0.2-0.2-0.3l-0.2-0.9
				c-0.3,0.2-0.5,0.4-0.7,0.6s-0.5,0.3-0.8,0.5c-0.3,0.1-0.5,0.2-0.9,0.3c-0.3,0.1-0.6,0.1-1,0.1c-0.4,0-0.7-0.1-1.1-0.2
				c-0.3-0.1-0.6-0.3-0.9-0.5s-0.4-0.5-0.6-0.8c-0.1-0.3-0.2-0.7-0.2-1.1c0-0.4,0.1-0.7,0.3-1.1s0.5-0.7,1-0.9s1.1-0.5,1.8-0.7
				c0.8-0.2,1.7-0.3,2.8-0.3v-0.8c0-0.7-0.2-1.3-0.5-1.7c-0.3-0.4-0.8-0.6-1.4-0.6c-0.4,0-0.8,0.1-1,0.2c-0.3,0.1-0.5,0.2-0.7,0.4
				c-0.2,0.1-0.4,0.2-0.5,0.4s-0.3,0.2-0.4,0.2c-0.1,0-0.2,0-0.3-0.1c-0.1-0.1-0.2-0.1-0.2-0.2L74.1,77.7z M79.6,81.7
				c-0.8,0-1.4,0.1-2,0.2c-0.5,0.1-1,0.2-1.3,0.4s-0.6,0.3-0.8,0.6c-0.2,0.2-0.2,0.5-0.2,0.7c0,0.3,0,0.5,0.1,0.7
				c0.1,0.2,0.2,0.3,0.3,0.5s0.3,0.2,0.5,0.3c0.2,0.1,0.4,0.1,0.6,0.1c0.3,0,0.6,0,0.8-0.1c0.2-0.1,0.5-0.1,0.7-0.3
				c0.2-0.1,0.4-0.2,0.6-0.4c0.2-0.2,0.4-0.3,0.6-0.5V81.7z"/>
			<path class="st1" d="M92.6,86h-1.7v-8.2h-5v5.8c0,0.4,0.1,0.7,0.3,0.9s0.4,0.3,0.8,0.3c0.2,0,0.3,0,0.5-0.1
				c0.1,0,0.2-0.1,0.3-0.2c0.1-0.1,0.2-0.1,0.2-0.2c0.1,0,0.1-0.1,0.2-0.1c0.1,0,0.2,0.1,0.2,0.2l0.5,0.8c-0.3,0.3-0.6,0.5-1.1,0.6
				s-0.8,0.2-1.3,0.2c-0.8,0-1.3-0.2-1.8-0.6c-0.4-0.4-0.6-1-0.6-1.8v-5.9h-1.2c-0.1,0-0.2,0-0.3-0.1c-0.1-0.1-0.1-0.2-0.1-0.3v-0.7
				l1.6-0.2l0.4-3c0-0.1,0.1-0.2,0.1-0.2c0.1-0.1,0.2-0.1,0.3-0.1H86v3.3h6.6V86z M93,73.3c0,0.2,0,0.3-0.1,0.5s-0.2,0.3-0.3,0.4
				s-0.2,0.2-0.4,0.3c-0.1,0.1-0.3,0.1-0.5,0.1c-0.2,0-0.3,0-0.5-0.1s-0.3-0.1-0.4-0.3c-0.1-0.1-0.2-0.2-0.3-0.4s-0.1-0.3-0.1-0.5
				s0-0.3,0.1-0.5c0.1-0.1,0.1-0.3,0.3-0.4c0.1-0.1,0.2-0.2,0.4-0.3s0.3-0.1,0.5-0.1c0.2,0,0.3,0,0.5,0.1c0.1,0.1,0.3,0.2,0.4,0.3
				c0.1,0.1,0.2,0.2,0.3,0.4C93,73,93,73.1,93,73.3z"/>
			<path class="st1" d="M103.6,76.4L99.7,86h-1.5l-3.9-9.6h1.4c0.1,0,0.3,0,0.3,0.1c0.1,0.1,0.1,0.2,0.2,0.2l2.4,6.2
				c0.1,0.2,0.1,0.5,0.2,0.7c0.1,0.2,0.1,0.4,0.2,0.7c0.1-0.2,0.1-0.4,0.2-0.7s0.1-0.5,0.2-0.7l2.5-6.2c0-0.1,0.1-0.2,0.2-0.3
				c0.1-0.1,0.2-0.1,0.3-0.1H103.6z"/>
			<path class="st1" d="M112.7,84.7c-0.2,0.3-0.5,0.5-0.8,0.7s-0.6,0.3-0.9,0.5c-0.3,0.1-0.7,0.2-1,0.3c-0.4,0.1-0.7,0.1-1.1,0.1
				c-0.7,0-1.3-0.1-1.8-0.3s-1-0.6-1.5-1c-0.4-0.4-0.7-1-1-1.6s-0.3-1.4-0.3-2.2c0-0.7,0.1-1.3,0.3-1.9c0.2-0.6,0.5-1.1,0.9-1.5
				c0.4-0.4,0.9-0.8,1.4-1c0.6-0.2,1.2-0.4,1.9-0.4c0.6,0,1.1,0.1,1.6,0.3c0.5,0.2,0.9,0.5,1.3,0.8s0.6,0.8,0.8,1.3s0.3,1.1,0.3,1.8
				c0,0.3,0,0.4-0.1,0.5c-0.1,0.1-0.2,0.1-0.3,0.1H106c0,0.6,0.1,1.1,0.3,1.6c0.1,0.5,0.4,0.8,0.6,1.1s0.6,0.5,1,0.7
				c0.4,0.1,0.8,0.2,1.2,0.2c0.4,0,0.8,0,1.1-0.1c0.3-0.1,0.6-0.2,0.8-0.3c0.2-0.1,0.4-0.2,0.6-0.3c0.1-0.1,0.3-0.1,0.4-0.1
				c0.1,0,0.2,0.1,0.3,0.2L112.7,84.7z M111.4,80.1c0-0.4-0.1-0.8-0.2-1.1s-0.3-0.6-0.5-0.8c-0.2-0.2-0.5-0.4-0.8-0.6
				s-0.6-0.2-1-0.2c-0.8,0-1.5,0.2-1.9,0.7c-0.5,0.5-0.8,1.1-0.9,2H111.4z"/>
			<path class="st1" d="M127.6,76.4l-3.9,9.6h-1.5l-3.9-9.6h1.4c0.1,0,0.3,0,0.3,0.1c0.1,0.1,0.1,0.2,0.2,0.2l2.4,6.2
				c0.1,0.2,0.1,0.5,0.2,0.7c0.1,0.2,0.1,0.4,0.2,0.7c0.1-0.2,0.1-0.4,0.2-0.7s0.1-0.5,0.2-0.7l2.5-6.2c0-0.1,0.1-0.2,0.2-0.3
				c0.1-0.1,0.2-0.1,0.3-0.1H127.6z"/>
			<path class="st1" d="M133,76.2c0.7,0,1.3,0.1,1.9,0.4s1,0.6,1.4,1c0.4,0.4,0.7,1,0.9,1.6c0.2,0.6,0.3,1.3,0.3,2
				c0,0.8-0.1,1.4-0.3,2.1c-0.2,0.6-0.5,1.1-0.9,1.6c-0.4,0.4-0.9,0.8-1.4,1s-1.2,0.3-1.9,0.3c-0.7,0-1.3-0.1-1.9-0.3
				c-0.6-0.2-1-0.6-1.4-1c-0.4-0.4-0.7-1-0.9-1.6c-0.2-0.6-0.3-1.3-0.3-2.1c0-0.8,0.1-1.4,0.3-2c0.2-0.6,0.5-1.1,0.9-1.6
				c0.4-0.4,0.9-0.8,1.4-1C131.6,76.3,132.3,76.2,133,76.2z M133,84.8c1,0,1.7-0.3,2.1-1c0.5-0.6,0.7-1.5,0.7-2.7
				c0-1.1-0.2-2-0.7-2.7s-1.2-1-2.1-1c-0.5,0-0.9,0.1-1.3,0.2c-0.4,0.2-0.7,0.4-0.9,0.7c-0.2,0.3-0.4,0.7-0.5,1.1
				c-0.1,0.5-0.2,1-0.2,1.5c0,1.1,0.2,2,0.7,2.7C131.3,84.5,132,84.8,133,84.8z"/>
			<path class="st1" d="M141.3,77.8c0.2-0.2,0.4-0.4,0.7-0.6c0.2-0.2,0.5-0.4,0.7-0.5c0.3-0.1,0.5-0.2,0.8-0.3
				c0.3-0.1,0.6-0.1,1-0.1c0.5,0,1,0.1,1.4,0.3c0.4,0.2,0.7,0.4,1,0.7c0.3,0.3,0.5,0.7,0.6,1.2c0.1,0.5,0.2,0.9,0.2,1.5V86H146v-6.1
				c0-0.7-0.2-1.3-0.5-1.7s-0.8-0.6-1.5-0.6c-0.5,0-1,0.1-1.4,0.4s-0.8,0.6-1.2,1V86h-1.7v-9.6h1c0.2,0,0.4,0.1,0.4,0.4L141.3,77.8z
				"/>
			<path class="st1" d="M155.8,86v-8.2l-1.1-0.1c-0.1,0-0.2-0.1-0.3-0.1c-0.1-0.1-0.1-0.2-0.1-0.3v-0.7h1.5V76
				c0-0.6,0.1-1.1,0.3-1.6c0.2-0.5,0.5-0.9,0.8-1.3s0.8-0.6,1.4-0.8c0.5-0.2,1.2-0.3,1.9-0.3c0.2,0,0.5,0,0.7,0
				c0.3,0,0.5,0.1,0.7,0.1l-0.1,0.9c0,0.1,0,0.1-0.1,0.1c0,0-0.1,0-0.2,0c-0.1,0-0.2,0-0.3,0s-0.2,0-0.4,0c-1.1,0-1.9,0.2-2.5,0.7
				c-0.5,0.5-0.8,1.2-0.8,2.1v0.5h5.8V86h-1.7v-8.2h-4.1V86H155.8z"/>
			<path class="st1" d="M167.6,78.3c0.3-0.7,0.7-1.2,1.1-1.5c0.4-0.4,1-0.6,1.6-0.6c0.2,0,0.4,0,0.6,0.1c0.2,0,0.4,0.1,0.5,0.2
				l-0.1,1.3c0,0.2-0.1,0.2-0.3,0.2c-0.1,0-0.2,0-0.4-0.1c-0.2,0-0.4-0.1-0.6-0.1c-0.3,0-0.6,0-0.8,0.1c-0.2,0.1-0.4,0.2-0.6,0.4
				c-0.2,0.2-0.4,0.4-0.5,0.6c-0.1,0.3-0.3,0.5-0.4,0.9V86H166v-9.6h1c0.2,0,0.3,0,0.4,0.1c0.1,0.1,0.1,0.2,0.1,0.4L167.6,78.3z"/>
			<path class="st1" d="M178.5,78c-0.1,0.1-0.2,0.2-0.4,0.2c-0.1,0-0.2,0-0.3-0.1c-0.1-0.1-0.3-0.1-0.4-0.2
				c-0.2-0.1-0.4-0.2-0.6-0.2c-0.2-0.1-0.5-0.1-0.9-0.1c-0.3,0-0.5,0-0.8,0.1c-0.2,0.1-0.4,0.2-0.6,0.3c-0.2,0.1-0.3,0.3-0.4,0.4
				c-0.1,0.2-0.1,0.4-0.1,0.5c0,0.2,0.1,0.5,0.2,0.6s0.3,0.3,0.6,0.4s0.5,0.2,0.8,0.3c0.3,0.1,0.6,0.2,0.9,0.3
				c0.3,0.1,0.6,0.2,0.9,0.3c0.3,0.1,0.6,0.3,0.8,0.5c0.2,0.2,0.4,0.4,0.6,0.7c0.1,0.3,0.2,0.6,0.2,1c0,0.4-0.1,0.9-0.2,1.2
				s-0.4,0.7-0.7,1c-0.3,0.3-0.7,0.5-1.1,0.7c-0.5,0.2-1,0.2-1.6,0.2c-0.7,0-1.3-0.1-1.8-0.3s-1-0.5-1.4-0.8l0.4-0.6
				c0-0.1,0.1-0.1,0.2-0.2c0.1,0,0.2-0.1,0.3-0.1c0.1,0,0.2,0,0.4,0.1s0.3,0.2,0.5,0.3c0.2,0.1,0.4,0.2,0.7,0.3
				c0.3,0.1,0.6,0.1,1,0.1c0.3,0,0.6,0,0.9-0.1c0.2-0.1,0.5-0.2,0.6-0.3c0.2-0.1,0.3-0.3,0.4-0.5c0.1-0.2,0.1-0.4,0.1-0.6
				c0-0.3-0.1-0.5-0.2-0.7c-0.1-0.2-0.3-0.3-0.6-0.4c-0.2-0.1-0.5-0.2-0.8-0.3s-0.6-0.2-0.9-0.3c-0.3-0.1-0.6-0.2-0.9-0.3
				s-0.6-0.3-0.8-0.5s-0.4-0.4-0.6-0.7s-0.2-0.6-0.2-1c0-0.4,0.1-0.7,0.2-1.1c0.2-0.3,0.4-0.6,0.7-0.9c0.3-0.3,0.6-0.5,1.1-0.6
				c0.4-0.2,0.9-0.2,1.5-0.2c0.6,0,1.2,0.1,1.7,0.3c0.5,0.2,0.9,0.5,1.3,0.8L178.5,78z"/>
			<path class="st1" d="M184.1,86.2c-0.8,0-1.3-0.2-1.8-0.6c-0.4-0.4-0.6-1-0.6-1.8v-5.9h-1.2c-0.1,0-0.2,0-0.3-0.1
				c-0.1-0.1-0.1-0.2-0.1-0.3v-0.7l1.6-0.2l0.4-3c0-0.1,0.1-0.2,0.1-0.2c0.1-0.1,0.2-0.1,0.3-0.1h0.9v3.3h2.8v1.2h-2.8v5.8
				c0,0.4,0.1,0.7,0.3,0.9c0.2,0.2,0.5,0.3,0.8,0.3c0.2,0,0.3,0,0.5-0.1c0.1,0,0.2-0.1,0.3-0.2c0.1-0.1,0.2-0.1,0.2-0.2
				c0.1,0,0.1-0.1,0.2-0.1c0.1,0,0.2,0.1,0.2,0.2l0.5,0.8c-0.3,0.3-0.6,0.5-1.1,0.6S184.5,86.2,184.1,86.2z"/>
		</g>
		<g class="st0">
			<path class="st1" d="M8.8,29.9c1.2-1.3,2.5-2.3,4-3s3.1-1.1,5-1.1c1.5,0,2.9,0.3,4,0.8c1.2,0.5,2.1,1.2,2.9,2.1
				c0.8,0.9,1.4,2,1.8,3.3c0.4,1.3,0.6,2.7,0.6,4.3V54h-4.9V36.3c0-2.1-0.5-3.7-1.4-4.9c-1-1.2-2.4-1.7-4.4-1.7
				c-1.4,0-2.8,0.3-4.1,1c-1.3,0.7-2.4,1.6-3.5,2.8V54H3.9V13.5h4.9V29.9z"/>
			<path class="st1" d="M40.8,17.4c0,0.5-0.1,0.9-0.3,1.3c-0.2,0.4-0.4,0.8-0.8,1.1c-0.3,0.3-0.7,0.6-1.1,0.8
				c-0.4,0.2-0.9,0.3-1.4,0.3c-0.5,0-0.9-0.1-1.3-0.3c-0.4-0.2-0.8-0.4-1.1-0.8c-0.3-0.3-0.6-0.7-0.7-1.1c-0.2-0.4-0.3-0.9-0.3-1.3
				s0.1-0.9,0.3-1.4c0.2-0.4,0.4-0.8,0.7-1.1c0.3-0.3,0.7-0.6,1.1-0.8c0.4-0.2,0.9-0.3,1.3-0.3c0.5,0,0.9,0.1,1.4,0.3
				c0.4,0.2,0.8,0.4,1.1,0.8c0.3,0.3,0.6,0.7,0.8,1.1C40.7,16.5,40.8,16.9,40.8,17.4z M39.7,26.1V54h-4.9V26.1H39.7z"/>
			<path class="st1" d="M64,30.7c-0.2,0.4-0.6,0.6-1,0.6c-0.3,0-0.6-0.1-0.9-0.3c-0.3-0.2-0.8-0.4-1.3-0.7c-0.5-0.2-1.1-0.5-1.8-0.7
				c-0.7-0.2-1.5-0.3-2.5-0.3c-0.8,0-1.6,0.1-2.2,0.3c-0.7,0.2-1.2,0.5-1.7,0.9c-0.5,0.4-0.8,0.8-1.1,1.3c-0.2,0.5-0.4,1-0.4,1.6
				c0,0.7,0.2,1.3,0.6,1.8c0.4,0.5,1,0.9,1.6,1.2s1.4,0.7,2.3,0.9s1.7,0.5,2.7,0.9c0.9,0.3,1.8,0.6,2.7,1c0.9,0.4,1.6,0.8,2.3,1.4
				c0.7,0.5,1.2,1.2,1.6,2c0.4,0.8,0.6,1.8,0.6,2.9c0,1.3-0.2,2.5-0.7,3.6c-0.5,1.1-1.1,2-2,2.8c-0.9,0.8-2,1.4-3.3,1.9
				s-2.8,0.7-4.5,0.7c-1.9,0-3.7-0.3-5.3-0.9s-2.9-1.4-4-2.4l1.2-1.9c0.1-0.2,0.3-0.4,0.5-0.5c0.2-0.1,0.5-0.2,0.8-0.2
				c0.3,0,0.7,0.1,1,0.4s0.8,0.5,1.3,0.9s1.2,0.6,1.9,0.9c0.8,0.3,1.7,0.4,2.8,0.4c1,0,1.8-0.1,2.5-0.4c0.7-0.2,1.3-0.6,1.8-1
				s0.8-0.9,1.1-1.5c0.2-0.6,0.3-1.1,0.3-1.8c0-0.8-0.2-1.4-0.6-1.9c-0.4-0.5-1-0.9-1.6-1.3s-1.5-0.7-2.3-0.9
				c-0.9-0.3-1.8-0.5-2.7-0.8c-0.9-0.3-1.8-0.6-2.7-1s-1.6-0.8-2.3-1.4c-0.7-0.6-1.2-1.3-1.6-2.1c-0.4-0.8-0.6-1.8-0.6-3
				c0-1.1,0.2-2.1,0.7-3.1c0.4-1,1.1-1.8,1.9-2.6c0.8-0.7,1.9-1.3,3.1-1.8c1.2-0.4,2.6-0.7,4.2-0.7c1.8,0,3.5,0.3,4.9,0.9
				c1.5,0.6,2.7,1.4,3.8,2.4L64,30.7z"/>
			<path class="st1" d="M80.1,54.4c-2.2,0-3.9-0.6-5.1-1.8c-1.2-1.2-1.8-3-1.8-5.3v-17h-3.4c-0.3,0-0.5-0.1-0.7-0.3
				c-0.2-0.2-0.3-0.4-0.3-0.8v-2l4.6-0.6l1.1-8.6c0.1-0.3,0.2-0.5,0.4-0.7c0.2-0.2,0.4-0.3,0.8-0.3h2.5v9.6h8.1v3.5h-8.1V47
				c0,1.2,0.3,2,0.9,2.6c0.6,0.6,1.3,0.9,2.2,0.9c0.5,0,1-0.1,1.3-0.2c0.4-0.1,0.7-0.3,1-0.5c0.3-0.2,0.5-0.3,0.7-0.5
				c0.2-0.1,0.4-0.2,0.5-0.2c0.3,0,0.5,0.2,0.7,0.5l1.4,2.3c-0.8,0.8-1.9,1.4-3.1,1.9C82.6,54.2,81.4,54.4,80.1,54.4z"/>
			<path class="st1" d="M102.9,25.7c2,0,3.9,0.3,5.5,1c1.6,0.7,3,1.6,4.2,2.9c1.2,1.2,2,2.8,2.7,4.5c0.6,1.8,0.9,3.7,0.9,5.9
				c0,2.2-0.3,4.2-0.9,5.9c-0.6,1.8-1.5,3.3-2.7,4.5c-1.2,1.2-2.5,2.2-4.2,2.9c-1.6,0.7-3.5,1-5.5,1c-2.1,0-3.9-0.3-5.5-1
				s-3-1.6-4.2-2.9c-1.2-1.2-2-2.8-2.7-4.5c-0.6-1.8-0.9-3.7-0.9-5.9c0-2.2,0.3-4.2,0.9-5.9c0.6-1.8,1.5-3.3,2.7-4.5
				c1.2-1.2,2.6-2.2,4.2-2.9C99,26,100.9,25.7,102.9,25.7z M102.9,50.6c2.8,0,4.8-0.9,6.2-2.8s2-4.4,2-7.7c0-3.3-0.7-5.9-2-7.8
				c-1.4-1.9-3.4-2.8-6.2-2.8c-1.4,0-2.6,0.2-3.6,0.7s-1.9,1.2-2.6,2.1c-0.7,0.9-1.2,2-1.5,3.3c-0.3,1.3-0.5,2.8-0.5,4.4
				c0,3.3,0.7,5.9,2,7.7S100.1,50.6,102.9,50.6z"/>
			<path class="st1" d="M127,31.7c0.9-1.9,2-3.4,3.2-4.5c1.3-1.1,2.9-1.6,4.7-1.6c0.6,0,1.1,0.1,1.7,0.2c0.5,0.1,1,0.3,1.4,0.6
				l-0.4,3.7c-0.1,0.5-0.4,0.7-0.8,0.7c-0.3,0-0.6-0.1-1.1-0.2c-0.5-0.1-1.1-0.2-1.7-0.2c-0.9,0-1.7,0.1-2.4,0.4
				c-0.7,0.3-1.3,0.6-1.8,1.1c-0.5,0.5-1,1.1-1.5,1.9c-0.4,0.7-0.8,1.6-1.2,2.5V54h-4.9V26.1h2.8c0.5,0,0.9,0.1,1.1,0.3
				c0.2,0.2,0.3,0.5,0.4,1L127,31.7z"/>
			<path class="st1" d="M166.4,26.1l-15.5,36.1c-0.2,0.4-0.4,0.7-0.6,0.9s-0.6,0.3-1.1,0.3h-3.6l5.1-11.1l-11.5-26.2h4.2
				c0.4,0,0.8,0.1,1,0.3c0.2,0.2,0.4,0.4,0.5,0.7l7.5,17.5c0.3,0.8,0.5,1.6,0.7,2.4c0.3-0.9,0.5-1.7,0.8-2.4l7.2-17.5
				c0.1-0.3,0.3-0.5,0.6-0.7c0.3-0.2,0.6-0.3,0.9-0.3H166.4z"/>
			<path class="st1" d="M168,51c0-0.5,0.1-0.9,0.3-1.3c0.2-0.4,0.4-0.8,0.7-1.1c0.3-0.3,0.7-0.6,1.1-0.7s0.9-0.3,1.3-0.3
				c0.5,0,0.9,0.1,1.3,0.3c0.4,0.2,0.8,0.4,1.1,0.7c0.3,0.3,0.6,0.7,0.7,1.1s0.3,0.9,0.3,1.3c0,0.5-0.1,0.9-0.3,1.4
				c-0.2,0.4-0.4,0.8-0.7,1.1c-0.3,0.3-0.7,0.6-1.1,0.7c-0.4,0.2-0.9,0.3-1.3,0.3c-0.5,0-0.9-0.1-1.3-0.3s-0.8-0.4-1.1-0.7
				c-0.3-0.3-0.5-0.7-0.7-1.1C168.1,51.9,168,51.5,168,51z"/>
			<path class="st1" d="M183.6,54V30.3l-3.1-0.4c-0.4-0.1-0.7-0.2-1-0.4c-0.2-0.2-0.4-0.5-0.4-0.8v-2h4.4v-1.5
				c0-1.7,0.3-3.3,0.8-4.7s1.3-2.6,2.4-3.7c1.1-1,2.4-1.8,4-2.4s3.4-0.9,5.5-0.9c0.7,0,1.4,0,2.1,0.1c0.7,0.1,1.4,0.2,1.9,0.4
				l-0.2,2.6c0,0.2-0.1,0.3-0.2,0.4c-0.1,0.1-0.3,0.1-0.5,0.1c-0.2,0-0.5,0-0.8,0c-0.3,0-0.6,0-1,0c-3.3,0-5.6,0.7-7.1,2
				c-1.5,1.3-2.2,3.4-2.2,6.1v1.4h16.8V54h-4.9V30.2h-11.8V54H183.6z"/>
			<path class="st1" d="M217.9,31.7c0.9-1.9,2-3.4,3.2-4.5c1.3-1.1,2.9-1.6,4.7-1.6c0.6,0,1.2,0.1,1.7,0.2c0.5,0.1,1,0.3,1.4,0.6
				l-0.4,3.7c-0.1,0.5-0.4,0.7-0.8,0.7c-0.3,0-0.6-0.1-1.1-0.2c-0.5-0.1-1.1-0.2-1.7-0.2c-0.9,0-1.7,0.1-2.4,0.4
				c-0.7,0.3-1.3,0.6-1.8,1.1c-0.5,0.5-1,1.1-1.5,1.9c-0.4,0.7-0.8,1.6-1.2,2.5V54h-4.9V26.1h2.8c0.5,0,0.9,0.1,1.1,0.3
				c0.2,0.2,0.3,0.5,0.4,1L217.9,31.7z"/>
			<path class="st1" d="M249.3,30.7c-0.2,0.4-0.6,0.6-1,0.6c-0.3,0-0.6-0.1-0.9-0.3c-0.3-0.2-0.8-0.4-1.3-0.7
				c-0.5-0.2-1.1-0.5-1.8-0.7c-0.7-0.2-1.5-0.3-2.5-0.3c-0.8,0-1.6,0.1-2.2,0.3c-0.7,0.2-1.2,0.5-1.7,0.9c-0.5,0.4-0.8,0.8-1.1,1.3
				c-0.2,0.5-0.4,1-0.4,1.6c0,0.7,0.2,1.3,0.6,1.8s1,0.9,1.6,1.2s1.4,0.7,2.3,0.9c0.9,0.3,1.7,0.5,2.7,0.9c0.9,0.3,1.8,0.6,2.7,1
				c0.9,0.4,1.6,0.8,2.3,1.4s1.2,1.2,1.6,2c0.4,0.8,0.6,1.8,0.6,2.9c0,1.3-0.2,2.5-0.7,3.6c-0.5,1.1-1.1,2-2,2.8
				c-0.9,0.8-2,1.4-3.3,1.9s-2.8,0.7-4.5,0.7c-1.9,0-3.7-0.3-5.3-0.9s-2.9-1.4-4-2.4l1.2-1.9c0.1-0.2,0.3-0.4,0.5-0.5
				c0.2-0.1,0.5-0.2,0.8-0.2c0.3,0,0.7,0.1,1,0.4s0.8,0.5,1.3,0.9s1.2,0.6,1.9,0.9s1.7,0.4,2.8,0.4c1,0,1.8-0.1,2.5-0.4
				c0.7-0.2,1.3-0.6,1.8-1s0.8-0.9,1.1-1.5c0.2-0.6,0.3-1.1,0.3-1.8c0-0.8-0.2-1.4-0.6-1.9c-0.4-0.5-1-0.9-1.6-1.3s-1.5-0.7-2.3-0.9
				c-0.9-0.3-1.8-0.5-2.7-0.8c-0.9-0.3-1.8-0.6-2.7-1c-0.9-0.4-1.6-0.8-2.3-1.4c-0.7-0.6-1.2-1.3-1.6-2.1c-0.4-0.8-0.6-1.8-0.6-3
				c0-1.1,0.2-2.1,0.7-3.1c0.4-1,1.1-1.8,1.9-2.6c0.8-0.7,1.9-1.3,3.1-1.8c1.2-0.4,2.6-0.7,4.2-0.7c1.8,0,3.5,0.3,4.9,0.9
				c1.5,0.6,2.7,1.4,3.8,2.4L249.3,30.7z"/>
			<path class="st1" d="M265.5,54.4c-2.2,0-3.9-0.6-5.1-1.8c-1.2-1.2-1.8-3-1.8-5.3v-17h-3.4c-0.3,0-0.5-0.1-0.7-0.3
				c-0.2-0.2-0.3-0.4-0.3-0.8v-2l4.6-0.6l1.1-8.6c0.1-0.3,0.2-0.5,0.4-0.7c0.2-0.2,0.4-0.3,0.8-0.3h2.5v9.6h8.1v3.5h-8.1V47
				c0,1.2,0.3,2,0.9,2.6c0.6,0.6,1.3,0.9,2.2,0.9c0.5,0,1-0.1,1.3-0.2s0.7-0.3,1-0.5c0.3-0.2,0.5-0.3,0.7-0.5
				c0.2-0.1,0.4-0.2,0.5-0.2c0.3,0,0.5,0.2,0.7,0.5l1.4,2.3c-0.8,0.8-1.9,1.4-3.1,1.9C268,54.2,266.7,54.4,265.5,54.4z"/>
		</g>
	</g>
</g>
</svg>
