<?xml version="1.0" encoding="utf-8"?>
<!-- Generator: Adobe Illustrator 23.0.3, SVG Export Plug-In . SVG Version: 6.00 Build 0)  -->
<svg version="1.1" id="Ebene_1" xmlns="http://www.w3.org/2000/svg" xmlns:xlink="http://www.w3.org/1999/xlink" x="0px" y="0px"
	 viewBox="0 0 268.9 50" style="enable-background:new 0 0 268.9 50;" xml:space="preserve">
<style type="text/css">
	.st0{fill:#AF3817;}
</style>
<path class="st0" d="M0,40.6V0h4.9v16.4c1.2-1.3,2.5-2.3,4-3s3.1-1.1,5-1.1c1.5,0,2.9,0.3,4,0.8c1.2,0.5,2.1,1.2,2.9,2.1
	c0.8,0.9,1.4,2,1.8,3.3c0.4,1.3,0.6,2.7,0.6,4.3v17.8h-4.9V22.8c0-2.1-0.5-3.7-1.4-4.9c-1-1.2-2.4-1.7-4.4-1.7c-1.4,0-2.8,0.3-4.1,1
	C7.1,17.9,6,18.8,4.9,20v20.5H0z"/>
<path class="st0" d="M37.2,3.9c0,0.5-0.1,0.9-0.3,1.3S36.4,6,36.1,6.3c-0.3,0.3-0.7,0.6-1.1,0.8c-0.4,0.2-0.9,0.3-1.3,0.3
	s-0.9-0.1-1.3-0.3c-0.4-0.2-0.8-0.4-1.1-0.8c-0.3-0.3-0.6-0.7-0.8-1.1s-0.3-0.9-0.3-1.3c0-0.5,0.1-0.9,0.3-1.4s0.4-0.8,0.8-1.1
	c0.3-0.3,0.7-0.6,1.1-0.8c0.4-0.2,0.9-0.3,1.3-0.3s0.9,0.1,1.3,0.3c0.4,0.2,0.8,0.4,1.1,0.8c0.3,0.3,0.6,0.7,0.8,1.1
	S37.2,3.4,37.2,3.9z M36.1,12.7v27.9h-4.9V12.7H36.1z"/>
<path class="st0" d="M60.7,17.3c-0.2,0.4-0.6,0.6-1,0.6c-0.3,0-0.6-0.1-0.9-0.3c-0.3-0.2-0.8-0.4-1.3-0.7c-0.5-0.2-1.1-0.5-1.8-0.7
	c-0.7-0.2-1.5-0.3-2.5-0.3c-0.8,0-1.6,0.1-2.2,0.3c-0.7,0.2-1.2,0.5-1.7,0.9c-0.5,0.4-0.8,0.8-1.1,1.3c-0.2,0.5-0.4,1-0.4,1.6
	c0,0.7,0.2,1.3,0.6,1.8c0.4,0.5,1,0.9,1.6,1.2c0.7,0.3,1.4,0.7,2.3,0.9c0.9,0.3,1.7,0.6,2.7,0.9c0.9,0.3,1.8,0.6,2.7,1
	c0.9,0.4,1.6,0.8,2.3,1.4c0.7,0.6,1.2,1.2,1.6,2c0.4,0.8,0.6,1.8,0.6,2.9c0,1.3-0.2,2.5-0.7,3.6c-0.5,1.1-1.1,2-2,2.8
	c-0.9,0.8-2,1.4-3.3,1.9c-1.3,0.5-2.8,0.7-4.5,0.7c-1.9,0-3.7-0.3-5.3-1c-1.6-0.6-2.9-1.4-4-2.4l1.2-1.9c0.1-0.2,0.3-0.4,0.5-0.6
	c0.2-0.1,0.5-0.2,0.8-0.2c0.3,0,0.7,0.1,1,0.4c0.4,0.3,0.8,0.5,1.3,0.9c0.5,0.3,1.2,0.6,1.9,0.9c0.7,0.3,1.7,0.4,2.8,0.4
	c1,0,1.8-0.1,2.5-0.4c0.7-0.2,1.3-0.6,1.8-1c0.5-0.4,0.8-0.9,1.1-1.5c0.2-0.6,0.3-1.1,0.3-1.8c0-0.8-0.2-1.4-0.6-1.9s-1-0.9-1.6-1.3
	c-0.7-0.4-1.5-0.7-2.3-0.9c-0.9-0.3-1.8-0.5-2.7-0.8c-0.9-0.3-1.8-0.6-2.7-1c-0.9-0.4-1.6-0.9-2.3-1.4c-0.7-0.6-1.2-1.3-1.6-2.1
	c-0.4-0.8-0.6-1.9-0.6-3c0-1.1,0.2-2.1,0.7-3.1c0.4-1,1.1-1.8,1.9-2.6c0.8-0.7,1.9-1.3,3.1-1.8c1.2-0.4,2.6-0.7,4.2-0.7
	c1.8,0,3.5,0.3,4.9,0.9c1.5,0.6,2.7,1.4,3.8,2.4L60.7,17.3z"/>
<path class="st0" d="M77.1,41c-2.2,0-3.9-0.6-5.1-1.8c-1.2-1.2-1.8-3-1.8-5.3V16.8h-3.4c-0.3,0-0.5-0.1-0.7-0.3s-0.3-0.4-0.3-0.8v-2
	l4.6-0.6l1.1-8.6c0-0.3,0.2-0.5,0.4-0.7c0.2-0.2,0.5-0.3,0.8-0.3h2.5v9.6h8v3.6h-8v16.7c0,1.2,0.3,2,0.9,2.6
	c0.6,0.6,1.3,0.9,2.2,0.9c0.5,0,1-0.1,1.3-0.2s0.7-0.3,1-0.5c0.3-0.2,0.5-0.3,0.7-0.5c0.2-0.1,0.4-0.2,0.5-0.2
	c0.3,0,0.5,0.2,0.7,0.5l1.4,2.3c-0.8,0.8-1.9,1.4-3.1,1.9C79.6,40.8,78.3,41,77.1,41z"/>
<path class="st0" d="M100.4,12.2c2,0,3.9,0.3,5.5,1c1.6,0.7,3,1.6,4.2,2.9c1.1,1.3,2,2.8,2.6,4.5c0.6,1.8,0.9,3.8,0.9,5.9
	c0,2.2-0.3,4.2-0.9,5.9c-0.6,1.8-1.5,3.3-2.6,4.5c-1.1,1.2-2.5,2.2-4.2,2.9c-1.6,0.7-3.5,1-5.5,1c-2,0-3.9-0.3-5.5-1
	c-1.6-0.7-3-1.6-4.2-2.9c-1.2-1.3-2-2.8-2.7-4.5c-0.6-1.8-0.9-3.7-0.9-5.9c0-2.2,0.3-4.2,0.9-5.9c0.6-1.8,1.5-3.3,2.7-4.5
	c1.2-1.2,2.6-2.2,4.2-2.9C96.6,12.6,98.4,12.2,100.4,12.2z M100.4,37.1c2.8,0,4.8-0.9,6.2-2.8c1.4-1.8,2-4.4,2-7.7
	c0-3.3-0.7-5.9-2-7.8c-1.4-1.9-3.4-2.8-6.2-2.8c-1.4,0-2.6,0.2-3.6,0.7c-1,0.5-1.9,1.2-2.6,2.1c-0.7,0.9-1.2,2-1.5,3.3
	c-0.3,1.3-0.5,2.8-0.5,4.4c0,1.7,0.2,3.1,0.5,4.4c0.3,1.3,0.9,2.4,1.5,3.3c0.7,0.9,1.5,1.6,2.6,2C97.8,36.9,99,37.1,100.4,37.1z"/>
<path class="st0" d="M119.8,40.6V12.7h2.8c0.5,0,0.9,0.1,1.1,0.3c0.2,0.2,0.3,0.6,0.4,1l0.3,4.4c1-1.9,2.1-3.5,3.5-4.6
	c1.4-1.1,3.1-1.6,4.9-1.6c0.8,0,1.5,0.1,2.1,0.3c0.6,0.2,1.2,0.4,1.7,0.7l-0.6,3.7c-0.1,0.5-0.4,0.7-0.9,0.7c-0.3,0-0.7-0.1-1.2-0.3
	c-0.5-0.2-1.3-0.3-2.2-0.3c-1.7,0-3.1,0.5-4.3,1.5c-1.1,1-2.1,2.4-2.9,4.3v17.8H119.8z"/>
<path class="st0" d="M150.1,48.8c-0.2,0.4-0.4,0.7-0.6,0.9c-0.2,0.2-0.6,0.3-1.1,0.3h-3.6l5.1-11.1l-11.5-26.3h4.2
	c0.4,0,0.8,0.1,1,0.3c0.2,0.2,0.4,0.4,0.5,0.7l7.5,17.6c0.2,0.4,0.3,0.8,0.4,1.2c0.1,0.4,0.2,0.8,0.3,1.2c0.1-0.4,0.3-0.8,0.4-1.2
	c0.1-0.4,0.3-0.8,0.4-1.2l7.2-17.5c0.1-0.3,0.3-0.5,0.6-0.7c0.3-0.2,0.6-0.3,0.9-0.3h3.9L150.1,48.8z"/>
<path class="st0" d="M162.9,37.5c0-0.5,0.1-0.9,0.3-1.3s0.4-0.8,0.7-1.1c0.3-0.3,0.7-0.6,1.1-0.7c0.4-0.2,0.9-0.3,1.3-0.3
	s0.9,0.1,1.3,0.3c0.4,0.2,0.8,0.4,1.1,0.7c0.3,0.3,0.6,0.7,0.7,1.1c0.2,0.4,0.3,0.9,0.3,1.3c0,0.5-0.1,1-0.3,1.4
	c-0.2,0.4-0.4,0.8-0.7,1.1c-0.3,0.3-0.7,0.6-1.1,0.7c-0.4,0.2-0.9,0.3-1.3,0.3s-0.9-0.1-1.3-0.3c-0.4-0.2-0.8-0.4-1.1-0.7
	c-0.3-0.3-0.5-0.7-0.7-1.1C163,38.5,162.9,38,162.9,37.5z"/>
<path class="st0" d="M177.3,40.6V16.9l-3.1-0.4c-0.4-0.1-0.7-0.2-1-0.4c-0.2-0.2-0.4-0.5-0.4-0.8v-2h4.4v-1.5c0-1.7,0.3-3.3,0.8-4.7
	c0.5-1.4,1.3-2.6,2.4-3.7c1.1-1,2.4-1.8,4-2.4c1.6-0.6,3.4-0.9,5.5-0.9c0.7,0,1.4,0,2.1,0.1c0.7,0.1,1.4,0.2,1.9,0.4l-0.2,2.6
	c0,0.2-0.1,0.4-0.3,0.4c-0.2,0.1-0.4,0.1-0.8,0.1c-0.2,0-0.4,0-0.6,0c-0.2,0-0.5,0-0.7,0c-3.2,0-5.6,0.7-7.1,2
	c-1.5,1.3-2.2,3.4-2.2,6.1v1.4h16.9v27.3H194V16.8h-11.8v23.8H177.3z"/>
<path class="st0" d="M207.6,40.6V12.7h2.8c0.5,0,0.9,0.1,1.1,0.3c0.2,0.2,0.3,0.6,0.4,1l0.3,4.4c1-1.9,2.1-3.5,3.5-4.6
	c1.4-1.1,3.1-1.6,4.9-1.6c0.8,0,1.5,0.1,2.1,0.3c0.6,0.2,1.2,0.4,1.7,0.7l-0.6,3.7c-0.1,0.5-0.4,0.7-0.9,0.7c-0.3,0-0.7-0.1-1.2-0.3
	c-0.5-0.2-1.3-0.3-2.2-0.3c-1.7,0-3.1,0.5-4.3,1.5c-1.1,1-2.1,2.4-2.9,4.3v17.8H207.6z"/>
<path class="st0" d="M245.8,17.3c-0.2,0.4-0.6,0.6-1,0.6c-0.3,0-0.6-0.1-0.9-0.3c-0.3-0.2-0.8-0.4-1.3-0.7c-0.5-0.2-1.1-0.5-1.8-0.7
	c-0.7-0.2-1.5-0.3-2.5-0.3c-0.8,0-1.6,0.1-2.2,0.3c-0.7,0.2-1.2,0.5-1.7,0.9c-0.5,0.4-0.8,0.8-1.1,1.3c-0.2,0.5-0.4,1-0.4,1.6
	c0,0.7,0.2,1.3,0.6,1.8c0.4,0.5,1,0.9,1.6,1.2c0.7,0.3,1.4,0.7,2.3,0.9c0.9,0.3,1.7,0.6,2.7,0.9c0.9,0.3,1.8,0.6,2.7,1
	c0.9,0.4,1.6,0.8,2.3,1.4c0.7,0.6,1.2,1.2,1.6,2c0.4,0.8,0.6,1.8,0.6,2.9c0,1.3-0.2,2.5-0.7,3.6s-1.1,2-2,2.8
	c-0.9,0.8-2,1.4-3.3,1.9c-1.3,0.5-2.8,0.7-4.5,0.7c-1.9,0-3.7-0.3-5.3-1c-1.6-0.6-2.9-1.4-4-2.4l1.2-1.9c0.1-0.2,0.3-0.4,0.5-0.6
	c0.2-0.1,0.5-0.2,0.8-0.2c0.3,0,0.7,0.1,1,0.4c0.4,0.3,0.8,0.5,1.3,0.9c0.5,0.3,1.2,0.6,1.9,0.9c0.7,0.3,1.7,0.4,2.8,0.4
	c1,0,1.8-0.1,2.5-0.4s1.3-0.6,1.8-1c0.5-0.4,0.8-0.9,1.1-1.5c0.2-0.6,0.3-1.1,0.3-1.8c0-0.8-0.2-1.4-0.6-1.9s-1-0.9-1.6-1.3
	c-0.7-0.4-1.5-0.7-2.3-0.9c-0.9-0.3-1.8-0.5-2.7-0.8c-0.9-0.3-1.8-0.6-2.7-1c-0.9-0.4-1.6-0.9-2.3-1.4c-0.7-0.6-1.2-1.3-1.6-2.1
	c-0.4-0.8-0.6-1.9-0.6-3c0-1.1,0.2-2.1,0.7-3.1c0.4-1,1.1-1.8,1.9-2.6c0.8-0.7,1.9-1.3,3.1-1.8c1.2-0.4,2.6-0.7,4.2-0.7
	c1.8,0,3.5,0.3,4.9,0.9c1.5,0.6,2.7,1.4,3.8,2.4L245.8,17.3z"/>
<path class="st0" d="M262.1,41c-2.2,0-3.9-0.6-5.1-1.8c-1.2-1.2-1.8-3-1.8-5.3V16.8h-3.4c-0.3,0-0.5-0.1-0.7-0.3
	c-0.2-0.2-0.3-0.4-0.3-0.8v-2l4.6-0.6l1.1-8.6c0-0.3,0.2-0.5,0.4-0.7c0.2-0.2,0.5-0.3,0.8-0.3h2.5v9.6h8v3.6h-8v16.7
	c0,1.2,0.3,2,0.9,2.6s1.3,0.9,2.2,0.9c0.5,0,1-0.1,1.3-0.2s0.7-0.3,1-0.5c0.3-0.2,0.5-0.3,0.7-0.5c0.2-0.1,0.4-0.2,0.5-0.2
	c0.3,0,0.5,0.2,0.7,0.5l1.4,2.3c-0.8,0.8-1.9,1.4-3.1,1.9C264.6,40.8,263.4,41,262.1,41z"/>
</svg>
