<svg id="Ebene_1" data-name="Ebene 1" xmlns="http://www.w3.org/2000/svg" viewBox="0 0 16.27 25"><defs><style>.cls-1{fill:#fff;}</style></defs><title>mauszeiger</title><path class="cls-1" d="M16.27,11.91a1.73,1.73,0,0,0-1.72-1.72,1.76,1.76,0,0,0-.94.28,1.71,1.71,0,0,0-2.53-.86A1.67,1.67,0,0,0,9.51,8.5a1.6,1.6,0,0,0-.79.2V7.2a.58.58,0,0,0,0-.19A1.84,1.84,0,0,0,6.89,5.58,1.82,1.82,0,0,0,5.11,7a.41.41,0,0,0-.05.19v7.38l-.66-.74h0l0,0v0a1.79,1.79,0,0,0-1.16-.55,1.75,1.75,0,0,0-1.28.42,1.78,1.78,0,0,0-.26,2.39l4.53,6.8v1.71a.45.45,0,0,0,.45.44h7.58a.45.45,0,0,0,.45-.44V22.13l1.55-2.83a.5.5,0,0,0,.05-.21V11.91ZM15.38,19l-1.54,2.83a.37.37,0,0,0-.06.21v2.09H7.08v-1.4A.45.45,0,0,0,7,22.46L2.48,15.67a.36.36,0,0,0-.07-.1l0,0-.08-.13a.87.87,0,0,1,1.41-1l1.34,1.51v.78a.45.45,0,0,0,.89,0V7.4a.94.94,0,0,1,1.88,0v6.33a.45.45,0,0,0,.89,0V10.18a.79.79,0,1,1,1.57,0,0,0,0,0,1,0,.06v3.62a.45.45,0,1,0,.89,0V11.05a.82.82,0,0,1,1.64,0v3.67a.45.45,0,0,0,.89,0v-2.8a.84.84,0,1,1,1.67,0Z"/><path class="cls-1" d="M3.83,6.44A.45.45,0,0,0,3.38,6H.44a.45.45,0,0,0,0,.89H3.38A.45.45,0,0,0,3.83,6.44Z"/><path class="cls-1" d="M6.89,3.83a.45.45,0,0,0,.45-.45V.44a.45.45,0,0,0-.89,0V3.38A.45.45,0,0,0,6.89,3.83Z"/><path class="cls-1" d="M4,4.45a.45.45,0,0,0,.32.13.42.42,0,0,0,.31-.13.42.42,0,0,0,0-.62L2.56,1.75a.45.45,0,0,0-.63.63Z"/><path class="cls-1" d="M9.37,4.6a.44.44,0,0,0,.32-.13L11.76,2.4a.43.43,0,0,0,0-.63.42.42,0,0,0-.62,0L9.06,3.85a.42.42,0,0,0,0,.62A.42.42,0,0,0,9.37,4.6Z"/><path class="cls-1" d="M9.86,6.44a.45.45,0,0,0,.45.44h2.94a.45.45,0,0,0,0-.89H10.31A.45.45,0,0,0,9.86,6.44Z"/></svg>