<?xml version="1.0" encoding="utf-8"?>
<!-- Generator: Adobe Illustrator 23.0.3, SVG Export Plug-In . SVG Version: 6.00 Build 0)  -->
<svg version="1.1" id="Ebene_1" xmlns="http://www.w3.org/2000/svg" xmlns:xlink="http://www.w3.org/1999/xlink" x="0px" y="0px"
	 viewBox="0 0 80 80" style="enable-background:new 0 0 80 80;" xml:space="preserve">
<style type="text/css">
	.st0{fill:#FFFFFF;}
	.st1{fill:#353431;}
</style>
<circle class="st0" cx="40" cy="40" r="40"/>
<path class="st1" d="M40,0C17.9,0,0,17.9,0,40c0,22.1,17.9,40,40,40s40-17.9,40-40C80,17.9,62.1,0,40,0z M36.4,21.4l4-4l0,0l4,4
	l8.9,8.9l-4,4l-6.1-6.1v20.2h-5.6V28.3l-6.9,6.9l-4-4L36.4,21.4L36.4,21.4z M61.8,57.7H18.2V40.3c0-0.6,0.5-1,1-1s1,0.5,1,1v15.4
	h39.4V40.3c0-0.6,0.5-1,1-1s1,0.5,1,1V57.7z"/>
</svg>
